<mxfile host="app.diagrams.net" modified="2024-06-08T16:18:15.116Z" agent="Mozilla/5.0 (X11; Ubuntu; Linux x86_64; rv:126.0) Gecko/20100101 Firefox/126.0" version="24.5.2" etag="WP8vUlL0NKQeiPZ4h4dE" type="github">
  <diagram name="PÃ¡gina-1" id="eBhLPoN2wGSXLXsYco7D">
    <mxGraphModel>
      <root>
        <mxCell id="0" />
        <mxCell id="1" parent="0" />
      </root>
    </mxGraphModel>
  </diagram>
</mxfile>
